<?xml version="1.0" encoding="UTF-8"?>
<svg version="1.1" xmlns="http://www.w3.org/2000/svg" width="2122" height="2122">
<path d="M0 0 C90.75 0 181.5 0 275 0 C280.74265277 18.37648886 280.74265277 18.37648886 282.48168945 24.78930664 C282.68824315 25.54141072 282.89479685 26.2935148 283.10760975 27.06840992 C283.77882863 29.51493855 284.44606583 31.96253309 285.11328125 34.41015625 C285.60022739 36.18782747 286.08744859 37.96542336 286.57492065 39.74295044 C287.61422695 43.53461214 288.65184389 47.32673023 289.68807983 51.11923218 C291.34353902 57.1777116 293.00300599 63.23508856 294.66333008 69.29223633 C295.08557059 70.83268694 295.08557059 70.83268694 295.51634121 72.40425777 C296.08945034 74.49509503 296.66257147 76.585929 297.23570442 78.67675972 C298.10600261 81.85213772 298.97594233 85.02761376 299.84580994 88.20310974 C303.62168071 101.98521922 307.40974614 115.76391537 311.2109375 129.5390625 C311.58491228 130.89431628 311.58491228 130.89431628 311.96644211 132.27694893 C314.19774554 140.36211882 316.43054268 148.44687608 318.66351318 156.53158569 C320.13539486 161.86080582 321.60692781 167.19012213 323.078125 172.51953125 C323.31950825 173.39389769 323.56089149 174.26826412 323.80958939 175.16912651 C327.40940514 188.21105348 330.99288595 201.2574021 334.56693077 214.30641365 C335.35049644 217.16680772 336.13449078 220.02708392 336.9186554 222.88731384 C337.17281566 223.81438298 337.42697592 224.74145212 337.68883801 225.69661427 C338.19552533 227.54476282 338.7022295 229.39290676 339.208951 231.24104595 C340.67917321 236.60449416 342.14633587 241.96876772 343.61126137 247.33366489 C344.50675644 250.61057967 345.40496147 253.88674702 346.30391693 257.162714 C346.72054903 258.68335705 347.1359883 260.20432746 347.55017853 261.72563744 C348.11299791 263.79238997 348.67987239 265.85798697 349.24780273 267.92333984 C349.56402084 269.07990082 349.88023895 270.23646179 350.20603943 271.42807007 C350.7523057 273.90799649 350.7523057 273.90799649 352 275 C363.91597402 232.34606526 375.81920984 189.6886328 387.66926193 147.01633072 C388.43820379 144.24746572 389.20725927 141.47863231 389.97634888 138.70980835 C395.11265862 120.21813639 400.24594525 101.72563241 405.36946964 83.23041344 C407.6965438 74.83002784 410.02501936 66.43003149 412.35439205 58.03028297 C414.01367164 52.04635519 415.67087617 46.06185793 417.32648945 40.07691479 C418.34845521 36.38444805 419.372366 32.69252273 420.39680672 29.00074196 C420.86991094 27.29426505 421.34221006 25.58756469 421.81362724 23.88062096 C422.46065892 21.53821456 423.11060558 19.19663509 423.76123047 16.85522461 C423.94499961 16.18718433 424.12876875 15.51914406 424.31810665 14.83086014 C425.71758383 9.81216434 427.34620775 4.96137675 429 0 C503.58 0 578.16 0 655 0 C658.37501257 10.12503772 658.37501257 10.12503772 659.61206055 14.60791016 C659.89572983 15.63135025 660.17939911 16.65479034 660.47166443 17.70924377 C660.77363235 18.80808395 661.07560028 19.90692413 661.38671875 21.0390625 C661.7162001 22.23051376 662.04568146 23.42196503 662.38514709 24.64952087 C663.29569194 27.94409073 664.20409202 31.23923794 665.11155701 34.53465652 C666.09578099 38.10682636 667.08273545 41.67824182 668.06933594 45.24975586 C669.79502673 51.49826555 671.51891516 57.74727033 673.24169922 63.99658203 C675.83169351 73.39151313 678.4252342 82.78546304 681.01925468 92.17928314 C689.13587711 121.5738518 697.25019927 150.96905425 705.32119751 180.37618828 C706.06723795 183.09426714 706.81349204 185.81228725 707.55981445 188.5302887 C708.04932061 190.31307868 708.53882259 192.09586981 709.02832031 193.87866211 C709.26775108 194.7506767 709.50718185 195.62269129 709.7538681 196.52113056 C710.90908802 200.72912478 712.06354765 204.93732461 713.21618652 209.14602661 C719.33110644 231.4734815 725.59374881 253.75431532 732 276 C732.17665192 275.36110336 732.35330383 274.72220673 732.53530884 274.06394958 C744.22285705 231.79708777 755.96397563 189.54532133 767.73641968 147.30203247 C771.09207251 135.26055176 774.44507894 123.21833603 777.796875 111.17578125 C794.01669222 52.90200245 794.01669222 52.90200245 801.40087891 26.50845337 C802.00152784 24.36152352 802.60195642 22.214532 803.20214844 20.06747437 C804.00506171 17.19580054 804.80897534 14.32440903 805.61328125 11.453125 C805.84441116 10.62607559 806.07554108 9.79902618 806.31367493 8.94691467 C807.15624659 5.94302585 808.01325248 2.96024256 809 0 C904.04 0 999.08 0 1097 0 C1088.94511693 28.76743954 1088.94511693 28.76743954 1084.76953125 42.98828125 C1084.29670385 44.60271238 1083.82400081 46.21717993 1083.35140991 47.8316803 C1082.09985741 52.10588428 1080.84644528 56.37954063 1079.59258652 60.65306854 C1078.52887577 64.27941738 1077.46630214 67.90609903 1076.40371037 71.53277588 C1068.88020482 97.21036997 1061.33656981 122.88204368 1053.78125 148.55029297 C1047.06792819 171.35876565 1040.37155054 194.17219197 1033.67825699 216.98654938 C1024.63001748 247.82766112 1015.57242714 278.66599468 1006.5 309.5 C997.82113966 338.99642805 989.15570007 368.49676736 980.5 398 C971.58802726 428.37674631 962.66494036 458.7501928 953.72912598 489.11993408 C944.74010654 519.67078937 935.76745635 550.22642346 926.80307007 580.78451538 C920.64335209 601.78179357 914.47949704 622.77783457 908.30078125 643.76953125 C907.74685251 645.65168131 907.19292794 647.53383259 906.63900757 649.41598511 C904.33353481 657.24933197 902.02800545 665.08266132 899.71960449 672.91514587 C891.07580418 702.25661532 882.54430967 731.62893552 874 761 C780.28 761 686.56 761 590 761 C575.00421934 669.94228745 575.00421934 669.94228745 571.890625 651 C571.75154 650.1538916 571.61245501 649.3077832 571.46915531 648.43603516 C567.38257205 623.57387824 563.31650852 598.70847281 559.28096104 573.83798003 C558.92443548 571.64077978 558.56782788 569.44359285 558.21120453 567.24640846 C556.09575998 554.21212605 553.98226117 541.17753199 551.87685132 528.14162457 C550.97087738 522.53265729 550.06266144 516.92405484 549.15372467 511.31556702 C548.78441192 509.03357379 548.41601865 506.75143154 548.04860687 504.46913147 C547.55219936 501.3855517 547.0528245 498.30246674 546.55273438 495.21948242 C546.40853436 494.31858226 546.26433434 493.41768209 546.11576462 492.48948193 C545.91555647 491.26089694 545.91555647 491.26089694 545.71130371 490.00749207 C545.59720909 489.30063357 545.48311447 488.59377508 545.36556244 487.86549664 C544.99883802 485.78336152 544.99883802 485.78336152 544 483 C531.11952107 526.55475517 518.24898694 570.11239388 505.4375 613.6875 C505.18500992 614.54624977 504.93251984 615.40499954 504.67237854 616.28977203 C501.05268655 628.60091404 497.43416787 640.9124008 493.81587219 653.22395325 C489.81264923 666.84512358 485.80901897 680.46617407 481.80425739 694.08689213 C480.17545441 699.62677869 478.54717191 705.16681784 476.91933823 710.70698929 C475.9091422 714.14467879 474.89847828 717.58223061 473.88769913 721.01974869 C473.42613673 722.58979785 472.96475808 724.15990105 472.50359726 725.73006821 C469.04648297 737.50034119 465.52513448 749.24955173 462 761 C385.11 761 308.22 761 229 761 C222.07 735.26 215.14 709.52 208 683 C202.43062404 662.45840554 196.85932011 641.91742263 191.27685547 621.37939453 C189.11059543 613.40851697 186.94735492 605.43682397 184.78515625 597.46484375 C172.98905608 553.9752518 161.16165368 510.49417652 149.33300781 467.01342773 C148.96275134 465.65240512 148.59249492 464.29138248 148.22223854 462.93035984 C148.03869359 462.25566865 147.85514865 461.58097745 147.66604173 460.88584107 C146.92313735 458.15500474 146.18023405 455.4241681 145.43733072 452.69333148 C144.87807235 450.63755969 144.31881027 448.58178892 143.75954819 446.52601814 C138.72895798 428.03417441 133.69984269 409.54193048 128.67245674 391.04921532 C127.65699761 387.31399356 126.64148712 383.57878578 125.6259613 379.84358215 C122.68115022 369.01217242 119.73652626 358.18071206 116.7929678 347.34896183 C110.9402678 325.81300319 105.08264493 304.27847454 99.18609428 282.75447464 C98.41244192 279.93003342 97.63924563 277.10546778 96.8662262 274.28085327 C96.37216319 272.47564661 95.87809888 270.6704403 95.3840332 268.86523438 C95.14584649 267.99489878 94.90765978 267.12456318 94.66225529 266.22785378 C93.28947641 261.21318128 91.91319504 256.19948743 90.53407669 251.18655491 C89.71119859 248.19273744 88.89132846 245.19810255 88.07229996 242.2032299 C87.69826653 240.8382141 87.32289318 239.47356463 86.94607162 238.10931587 C86.43918885 236.27377927 85.93733883 234.43685503 85.43579102 232.59985352 C85.01645042 231.0737722 85.01645042 231.0737722 84.58863831 229.51686096 C84 227 84 227 84 224 C82.82730057 224.02505615 81.65460114 224.0501123 80.44636536 224.07592773 C65.56859184 224.3928755 50.6906259 224.70005567 35.8125 225 C34.63451214 225.0237545 33.45652428 225.047509 32.24283981 225.07198334 C-2.50910201 225.76976252 -37.24022102 226.34147746 -72 226 C-71.7004541 225.05648682 -71.4009082 224.11297363 -71.09228516 223.14086914 C-69.6026597 218.44824769 -68.11379332 213.75538551 -66.625 209.0625 C-66.34022797 208.16500031 -66.05545593 207.26750061 -65.76205444 206.34280396 C-62.08426465 194.75022515 -58.41595357 183.15471406 -54.76171875 171.5546875 C-46.87702682 146.53122197 -38.94053139 121.52613724 -30.88946533 96.55566406 C-24.14802526 75.64277589 -17.51207569 54.69788532 -10.92382812 33.73632812 C-10.5638826 32.59257217 -10.20393707 31.44881622 -9.83308411 30.270401 C-9.17137248 28.16743649 -8.51068438 26.06414944 -7.85136414 23.96043396 C-5.32677828 15.93879649 -2.66063107 7.98189321 0 0 Z " fill="#030606" transform="translate(773,635)"/>
<path d="M0 0 C0.78336304 0.00037972 1.56672608 0.00075944 2.3738274 0.00115067 C3.72488806 -0.00183591 3.72488806 -0.00183591 5.10324287 -0.00488281 C6.10419469 -0.00196997 7.10514651 0.00094287 8.1364302 0.00394398 C9.19084114 0.00308955 10.24525207 0.00223513 11.33161485 0.00135481 C14.89396577 -0.00030313 18.45627045 0.00522651 22.01861709 0.01067311 C24.56060418 0.01095494 27.10259135 0.01079733 29.6445784 0.0102306 C35.13231704 0.01000228 40.62004057 0.01285378 46.10777611 0.01846844 C54.04220598 0.02658111 61.97663009 0.02919842 69.91106366 0.03045643 C82.78285556 0.03264732 95.65464113 0.03930839 108.52642959 0.04875904 C121.03326521 0.05793221 133.54009911 0.06501351 146.04693741 0.06926686 C146.81731954 0.06952958 147.58770168 0.0697923 148.38142873 0.07006299 C152.24604846 0.07136799 156.11066822 0.0726317 159.97528797 0.07387489 C192.05736256 0.08424865 224.13942938 0.10186795 256.22149795 0.1241985 C254.66415427 6.50110717 253.09735932 12.8437875 251.08697647 19.09612232 C250.69049911 20.33582783 250.29402176 21.57553334 249.88552994 22.85280567 C249.45720839 24.17896438 249.02883143 25.50510518 248.6004042 26.83122975 C248.14367863 28.25491334 247.68731868 29.67871428 247.2312941 31.10262257 C246.25957004 34.13450122 245.28557706 37.16563721 244.30972427 40.19618946 C242.75845846 45.01408146 241.2126843 49.83372395 239.66803116 54.65373951 C239.14085848 56.29862275 238.61368256 57.94350495 238.08650345 59.58838612 C237.82436113 60.4063397 237.56221882 61.22429329 237.29213279 62.06703335 C236.49205666 64.56286639 235.69149221 67.05854231 234.89079422 69.55417591 C230.0742689 84.56833553 225.29141005 99.59306148 220.5240187 114.62288624 C219.90582739 116.57169348 219.2874422 118.52043911 218.66900772 120.4691692 C212.48673536 139.95099139 206.33002128 159.44084783 200.18100113 178.93318897 C192.99627178 201.70568566 185.7591345 224.4613263 178.51423782 247.21472889 C178.06982575 248.6104572 177.62541607 250.00618626 177.18100876 251.40191609 C176.73649125 252.79799058 176.29196711 254.19406297 175.84743637 255.59013325 C170.94259021 270.99456047 166.04930083 286.40264906 161.15899795 301.8116985 C160.95403198 302.45753392 160.74906601 303.10336933 160.53788894 303.76877552 C158.88337096 308.98212326 157.22888562 314.19548135 155.57452148 319.40887791 C152.64786493 328.63163231 149.71950015 337.85384258 146.7897734 347.07562214 C144.89174695 353.05006247 142.99403139 359.02460156 141.09649795 364.9991985 C140.88832191 365.65466412 140.68014587 366.31012974 140.46566147 366.98545796 C134.01968418 387.28229165 127.59791663 407.58667304 121.19290298 427.89647633 C116.72878979 442.04993555 112.24832009 456.19803774 107.74493545 470.33904225 C107.51229177 471.06965178 107.27964809 471.80026131 107.0399546 472.55301052 C104.76241343 479.70526755 102.48386559 486.85720116 100.20173782 494.00799614 C99.35429377 496.66404561 98.50773956 499.32037827 97.6613211 501.97675472 C97.10283619 503.72842717 96.5431802 505.47972613 95.98343033 507.23099476 C91.64864962 520.83761396 87.45459641 534.48421458 83.22149795 548.1241985 C197.40149795 548.1241985 311.58149795 548.1241985 429.22149795 548.1241985 C437.27644017 575.74114324 437.27644017 575.74114324 440.90899795 588.83122975 C441.32928415 590.34139976 441.74969367 591.85153545 442.17021316 593.36164051 C443.29011409 597.38479326 444.40812776 601.40846805 445.52570862 605.43226582 C446.47093216 608.83451505 447.4173294 612.23643738 448.3637051 615.63836628 C456.54280086 645.04065735 464.69466104 674.45053149 472.83597511 703.86330467 C473.7609664 707.20503248 474.68618249 710.54669804 475.6114096 713.88836056 C476.05350888 715.4853856 476.49548437 717.08244491 476.93732971 718.67954022 C479.08702419 726.44969606 481.24323514 734.21774481 483.43292373 741.97673756 C483.76542633 743.15599812 484.09792892 744.33525868 484.44050735 745.5502544 C485.04824576 747.70171084 485.65822383 749.85253647 486.27092117 752.00258595 C486.66230018 753.38753758 486.66230018 753.38753758 487.06158584 754.80046803 C487.28761993 755.59470173 487.51365402 756.38893543 487.74653763 757.20723683 C488.22149795 759.1241985 488.22149795 759.1241985 488.22149795 761.1241985 C244.02149795 761.1241985 -0.17850205 761.1241985 -251.77850205 761.1241985 C-249.90288563 754.24693828 -248.0015073 747.49528457 -245.75433213 740.74871022 C-245.46713208 739.8786481 -245.17993204 739.00858599 -244.88402897 738.11215836 C-243.94136057 735.25851232 -242.9946996 732.406208 -242.0480333 729.553886 C-241.37856325 727.52957661 -240.70936946 725.50517583 -240.04043442 723.48068959 C-238.62619057 719.2021689 -237.21028417 714.92420377 -235.7929979 710.64668995 C-232.4655415 700.60368881 -229.14692417 690.55776622 -225.8272596 680.51218754 C-224.7913568 677.37851609 -223.75457704 674.24513618 -222.71754318 671.11183888 C-216.9966508 653.82082004 -211.33810867 636.50967133 -205.69945866 619.19167858 C-199.69018462 600.73689514 -193.60212325 582.30787537 -187.52850205 563.8741985 C-185.17414454 556.72842803 -182.81990217 549.58261965 -180.46600205 542.4366985 C-180.17776125 541.56166361 -179.88952046 540.68662873 -179.59254509 539.78507763 C-174.22393245 523.48600782 -168.87132096 507.18174043 -163.52850205 490.8741985 C-156.51725963 469.47520391 -149.49630857 448.07943587 -142.46600205 426.6866985 C-141.98176862 425.21316769 -141.49753603 423.7396366 -141.01330429 422.26610523 C-138.3347795 414.1153533 -135.65603119 405.96467484 -132.97719437 397.81402546 C-128.60981564 384.52577074 -124.24287202 371.23737303 -119.87630326 357.94885212 C-119.39411444 356.48143844 -118.91192144 355.01402613 -118.42972428 353.54661518 C-111.17950357 331.48286962 -103.93601727 309.41692318 -96.69731766 287.34939533 C-89.14587194 264.32861082 -81.58183558 241.31198167 -74.01314026 218.29686314 C-66.33397996 194.9457424 -58.66340831 171.59182648 -51.00280625 148.23461109 C-45.89526734 132.6618803 -40.7825511 117.09086811 -35.66131455 101.522636 C-35.13908032 99.93496988 -34.61684827 98.34730305 -34.09461838 96.75963551 C-32.01892481 90.44933232 -29.94322154 84.13903243 -27.8666063 77.82903248 C-22.87667968 62.6662289 -17.89165515 47.50207156 -12.9620958 32.319511 C-12.60188339 31.21078633 -12.24167099 30.10206166 -11.87054306 28.95973927 C-10.23542122 23.92529268 -8.60370977 18.88978709 -6.97820908 13.85222584 C-6.4234446 12.14077225 -5.86860019 10.42934457 -5.3136583 8.7179485 C-5.06699921 7.94895222 -4.82034012 7.17995594 -4.56620651 6.38765675 C-2.54736239 0.17789048 -2.54736239 0.17789048 0 0 Z " fill="#030606" transform="translate(501.7785020470619,634.8758015036583)"/>
<path d="M0 0 C1.32 0 2.64 0 4 0 C3.625 2.4375 3.625 2.4375 3 5 C2.01 5.495 2.01 5.495 1 6 C0.67 4.02 0.34 2.04 0 0 Z " fill="#000000" transform="translate(1595,213)"/>
</svg>
